Coordinates
version=1
nRows=21
nColumns=19
inDegrees=yes

Units are S.I. units (second, meters, Newtons, ...)
If the header above contains a line with 'inDegrees', this indicates whether rotational values are in degrees (yes) or radians (no).

endheader
time	pelvis_tilt	pelvis_list	pelvis_rotation	pelvis_tx	pelvis_ty	pelvis_tz	hip_flexion_r	hip_adduction_r	hip_rotation_r	knee_angle_r	knee_angle_r_beta	ankle_angle_r	hip_flexion_l	hip_adduction_l	hip_rotation_l	knee_angle_l	knee_angle_l_beta	ankle_angle_l
     11.96666667	     -5.43897776	     -6.46159511	     -4.30559106	      2.13987971	      1.01084246	      1.04666901	     26.86191547	      9.36435546	     -2.63509701	     14.93304763	      0.26063085	      0.33240875	    -10.74444478	    -10.44882674	    -15.13424687	     50.72015980	      0.88523379	    -16.64530233
     11.97333333	     -4.62403080	     -7.13439924	     -4.92145907	      2.13931037	      1.00786406	      1.04759445	     26.00204798	     10.13900684	     -3.23274920	     16.90784712	      0.29509760	      0.87594515	    -10.44663193	    -11.55938817	    -15.83199478	     54.29636899	      0.94765041	    -15.72985134
     11.98000000	     -4.42400050	     -7.64191123	     -5.48069881	      2.13848916	      1.00390415	      1.04857315	     25.95542955	     10.69519296	     -3.88689005	     19.40038278	      0.33860056	      1.67081806	     -9.25008778	    -12.60408975	    -16.21900051	     58.02205696	      1.01267593	    -14.89517163
     11.98666667	     -3.70744332	     -8.19464428	     -6.01136297	      2.13750762	      1.00037224	      1.04947439	     25.30185407	     11.24975843	     -4.31567067	     22.01264685	      0.38419316	      2.75295193	     -8.60652642	    -13.68434220	    -16.68768283	     61.55806653	      1.07439094	    -14.13196976
     11.99333333	     -3.65719224	     -8.48369378	     -6.48635751	      2.13624646	      0.99596059	      1.05040278	     25.45503348	     11.53982821	     -4.62637782	     24.91009069	      0.43476310	      4.07892841	     -6.97091848	    -14.54334263	    -16.71077882	     65.16473728	      1.13733922	    -13.33629425
     12.00000000	     -3.20803218	     -8.86926296	     -6.84519784	      2.13479004	      0.99205413	      1.05115128	     25.05283353	     11.89232150	     -4.73114779	     27.67232577	      0.48297320	      5.69837525	     -5.69436703	    -15.48510626	    -16.67127802	     68.58460587	      1.19702719	    -12.59060440
     12.00666667	     -2.37218658	     -9.29078698	     -7.10980546	      2.13313575	      0.98872769	      1.05174313	     24.10041708	     12.26222068	     -4.59282266	     30.25324238	      0.52801869	      7.55051770	     -4.76087588	    -16.38170714	    -16.50108277	     71.77340861	      1.25268230	    -11.83238475
     12.01333333	     -1.57465960	     -9.63778492	     -7.27170335	      2.13127236	      0.98579175	      1.05216701	     23.02174332	     12.59921262	     -4.15999887	     32.52912712	      0.56774037	      9.45391599	     -3.61012480	    -17.13058051	    -16.03850491	     74.76960782	      1.30497584	    -11.17273163
     12.02000000	     -1.23599606	     -9.81178317	     -7.28529155	      2.12926596	      0.98242649	      1.05243563	     22.44014683	     12.67460550	     -4.07818377	     34.80473394	      0.60745720	     11.63950763	     -1.70513090	    -17.71006375	    -15.19119557	     77.71554748	      1.35639218	    -10.16176305
     12.02666667	     -1.50410370	     -9.74361069	     -7.09301604	      2.12698108	      0.97909483	      1.05246022	     22.36439568	     12.54482113	     -3.92859685	     36.70256184	      0.64058055	     13.65918722	      1.24538772	    -17.87953476	    -13.65891453	     80.52591114	      1.40544228	     -9.37161594
     12.03333333	     -1.21855407	     -9.78065426	     -6.84817546	      2.12475988	      0.97696109	      1.05231378	     21.39675009	     12.50300842	     -3.62161850	     38.08923705	      0.66478260	     15.70865390	      3.52803980	    -18.03504851	    -12.26522156	     82.92025680	      1.44723150	     -8.52582941
     12.04000000	     -0.64596194	     -9.79429845	     -6.70475951	      2.12267998	      0.97583298	      1.05219030	     19.83179971	     12.49777560	     -3.00147792	     39.00129457	      0.68070100	     17.75933971	      5.37950598	    -18.10079331	    -11.14818423	     84.88451802	      1.48151432	     -7.63762756
     12.04666667	     -0.67213155	     -9.62197757	     -5.99698740	      2.12057357	      0.97472517	      1.05144974	     18.78494686	     12.11151369	     -3.10335518	     39.51837015	      0.68972567	     19.41877262	      8.33461674	    -17.69675762	     -9.06990672	     86.70634196	      1.51331115	     -6.82163707
     12.05333333	     -0.91488741	     -9.32130644	     -5.55312228	      2.11874357	      0.97402356	      1.05096235	     17.73857194	     11.73053373	     -2.84081862	     39.69000486	      0.69272126	     20.97911258	     11.32315621	    -17.12905363	     -7.40380834	     88.12096160	      1.53800092	     -5.99115896
     12.06000000	     -0.73019802	     -8.94983574	     -5.42358386	      2.11727092	      0.97457789	      1.05091352	     15.92019090	     11.43030484	     -1.95273424	     39.38433926	      0.68738639	     22.33364504	     13.47931150	    -16.57459144	     -6.45996514	     88.98698970	      1.55311596	     -5.14396963
     12.06666667	     -1.01122754	     -8.44383146	     -4.46124723	      2.11619239	      0.97514954	      1.04990065	     14.46435093	     10.64148599	     -2.37930982	     38.67920359	      0.67507945	     23.37212477	     16.48883962	    -15.46069984	     -4.51598546	     89.63998016	      1.56451280	     -4.36183253
     12.07333333	     -1.37326124	     -7.79646725	     -4.00900056	      2.11544413	      0.97627137	      1.04956565	     12.90511652	      9.94337645	     -2.06331614	     37.72839126	      0.65848465	     24.11034220	     19.15904319	    -14.38812604	     -3.43354565	     89.81560523	      1.56757803	     -3.59957134
     12.08000000	     -1.72384061	     -7.05914763	     -3.62340186	      2.11513177	      0.97795571	      1.04938826	     11.16201453	      9.17539237	     -1.69375361	     36.48513250	      0.63678569	     24.50348979	     21.57891186	    -13.27728695	     -2.69110568	     89.57144524	      1.56331664	     -2.85887769
     12.08666667	     -2.10054074	     -6.23061812	     -3.38423531	      2.11520069	      0.98011240	      1.04945487	      9.31544650	      8.32963600	     -1.25271775	     35.01188727	      0.61107271	     24.53061388	     23.77109552	    -12.17815340	     -2.35355053	     88.93254167	      1.55216566	     -2.13141018
     12.09333333	     -2.62552890	     -5.35028095	     -3.28642432	      2.11572351	      0.98249148	      1.04974297	      7.56363640	      7.47810559	     -0.64163170	     33.42258526	      0.58333416	     24.13283464	     25.86467902	    -11.20515944	     -2.42365846	     87.92413812	      1.53456570	     -1.38604298
     12.10000000	     -2.46658992	     -4.33139804	     -2.90016816	      2.11659467	      0.98605919	      1.04972410	      4.95332695	      6.33962297	     -0.53237588	     31.54510718	      0.55056598	     23.36393116	     27.04176955	     -9.96727967	     -2.53284135	     86.47995243	      1.50935991	     -0.72440137
